<svg width="20" height="20" viewBox="0 0 20 20" fill="none" xmlns="http://www.w3.org/2000/svg">
<g clip-path="url(#clip0_706_48)">
<path fill-rule="evenodd" clip-rule="evenodd" d="M10 20C15.5228 20 20 15.5228 20 10C20 4.47715 15.5228 0 10 0C4.47715 0 0 4.47715 0 10C0 15.5228 4.47715 20 10 20ZM15.4568 16.5174C13.9803 17.7549 12.0772 18.5 10 18.5C5.30558 18.5 1.5 14.6944 1.5 10C1.5 7.92282 2.24508 6.01967 3.48256 4.54322L15.4568 16.5174ZM16.5174 15.4568L4.54322 3.48256C6.01967 2.24508 7.92282 1.5 10 1.5C14.6944 1.5 18.5 5.30558 18.5 10C18.5 12.0772 17.7549 13.9803 16.5174 15.4568Z" fill="#121620"/>
</g>
<defs>
<clipPath id="clip0_706_48">
<rect width="20" height="20" fill="white"/>
</clipPath>
</defs>
</svg>
