<svg width="20" height="20" viewBox="0 0 20 20" fill="none" xmlns="http://www.w3.org/2000/svg">
<g clip-path="url(#clip0_699_233)">
<path d="M10 4.75C10.4142 4.75 10.75 5.08579 10.75 5.5V10.5C10.75 10.9142 10.4142 11.25 10 11.25C9.58579 11.25 9.25 10.9142 9.25 10.5V5.5C9.25 5.08579 9.58579 4.75 10 4.75Z" fill="#121620"/>
<path d="M11 13.5C11 14.0523 10.5523 14.5 10 14.5C9.44771 14.5 9 14.0523 9 13.5C9 12.9477 9.44771 12.5 10 12.5C10.5523 12.5 11 12.9477 11 13.5Z" fill="#121620"/>
<path fill-rule="evenodd" clip-rule="evenodd" d="M20 10C20 15.5228 15.5228 20 10 20C4.47715 20 0 15.5228 0 10C0 4.47715 4.47715 0 10 0C15.5228 0 20 4.47715 20 10ZM10 18.5C14.6944 18.5 18.5 14.6944 18.5 10C18.5 5.30558 14.6944 1.5 10 1.5C5.30558 1.5 1.5 5.30558 1.5 10C1.5 14.6944 5.30558 18.5 10 18.5Z" fill="#121620"/>
</g>
<defs>
<clipPath id="clip0_699_233">
<rect width="20" height="20" fill="white"/>
</clipPath>
</defs>
</svg>
