<svg width="20" height="20" viewBox="0 0 20 20" fill="none" xmlns="http://www.w3.org/2000/svg">
<path fill-rule="evenodd" clip-rule="evenodd" d="M1.66667 5.83333C1.66667 3.53214 3.53215 1.66666 5.83333 1.66666H14.1667C16.4679 1.66666 18.3333 3.53214 18.3333 5.83333V14.1667C18.3333 16.4679 16.4679 18.3333 14.1667 18.3333H5.83333C3.53215 18.3333 1.66667 16.4679 1.66667 14.1667V5.83333ZM5.83333 3.33333H14.1667C14.5527 3.33333 14.9182 3.42081 15.2446 3.57701L3.57702 15.2446C3.42081 14.9182 3.33333 14.5527 3.33333 14.1667V5.83333C3.33333 4.45262 4.45262 3.33333 5.83333 3.33333ZM4.75557 16.4231C5.08192 16.5792 5.44741 16.6667 5.83333 16.6667H14.1667C15.5474 16.6667 16.6667 15.5474 16.6667 14.1667V5.83333C16.6667 5.44741 16.5792 5.08191 16.4231 4.75557L4.75557 16.4231Z" fill="white"/>
</svg>
