<svg width="20" height="20" viewBox="0 0 20 20" fill="none" xmlns="http://www.w3.org/2000/svg">
<g clip-path="url(#clip0_697_158)">
<path fill-rule="evenodd" clip-rule="evenodd" d="M13.9568 15.0174C12.4803 16.2549 10.5772 17 8.5 17C3.80558 17 0 13.1944 0 8.5C0 3.80558 3.80558 0 8.5 0C13.1944 0 17 3.80558 17 8.5C17 10.5772 16.2549 12.4803 15.0174 13.9568L19.5303 18.4697C19.8232 18.7626 19.8232 19.2374 19.5303 19.5303C19.2374 19.8232 18.7626 19.8232 18.4697 19.5303L13.9568 15.0174ZM15.5 8.5C15.5 12.366 12.366 15.5 8.5 15.5C4.63401 15.5 1.5 12.366 1.5 8.5C1.5 4.63401 4.63401 1.5 8.5 1.5C12.366 1.5 15.5 4.63401 15.5 8.5Z" fill="#121620"/>
</g>
<defs>
<clipPath id="clip0_697_158">
<rect width="20" height="20" fill="white"/>
</clipPath>
</defs>
</svg>
