<svg width="20" height="20" viewBox="0 0 20 20" fill="none" xmlns="http://www.w3.org/2000/svg">
<path fill-rule="evenodd" clip-rule="evenodd" d="M18.5 10C18.5 14.6944 14.6944 18.5 10 18.5C5.30558 18.5 1.5 14.6944 1.5 10C1.5 5.30558 5.30558 1.5 10 1.5C14.6944 1.5 18.5 5.30558 18.5 10ZM10 20C15.5228 20 20 15.5228 20 10C20 4.47715 15.5228 0 10 0C4.47715 0 0 4.47715 0 10C0 15.5228 4.47715 20 10 20ZM14.1093 7.43726C14.3508 7.10073 14.2738 6.63215 13.9373 6.39065C13.6007 6.14916 13.1321 6.22621 12.8907 6.56274L9.0628 11.897L6.48931 9.68161C6.1754 9.41137 5.70185 9.44677 5.43161 9.76069C5.16137 10.0746 5.19677 10.5482 5.51069 10.8184L8.70513 13.5684C8.8646 13.7057 9.0744 13.7697 9.28333 13.7447C9.49226 13.7198 9.68111 13.6082 9.80379 13.4373L14.1093 7.43726Z" fill="#121620"/>
</svg>
