<svg width="20" height="20" viewBox="0 0 20 20" fill="none" xmlns="http://www.w3.org/2000/svg">
<g clip-path="url(#clip0_635_150)">
<path fill-rule="evenodd" clip-rule="evenodd" d="M2.10311 14.9182L7.74618 3.1618C8.65381 1.2709 11.3462 1.2709 12.2538 3.16179L17.8969 14.9182C18.6935 16.5778 17.4839 18.5 15.643 18.5H4.35692C2.51604 18.5 1.30651 16.5778 2.10311 14.9182ZM6.39389 2.5127L0.750829 14.2691C-0.523739 16.9244 1.41152 20 4.35692 20H15.643C18.5885 20 20.5237 16.9244 19.2491 14.2691L13.6061 2.5127C12.1539 -0.512738 7.8461 -0.512735 6.39389 2.5127ZM9.99998 5.75C10.4142 5.75 10.75 6.08579 10.75 6.5V11.5C10.75 11.9142 10.4142 12.25 9.99998 12.25C9.58577 12.25 9.24998 11.9142 9.24998 11.5V6.5C9.24998 6.08579 9.58577 5.75 9.99998 5.75ZM9.99998 15.5C10.5523 15.5 11 15.0523 11 14.5C11 13.9477 10.5523 13.5 9.99998 13.5C9.4477 13.5 8.99998 13.9477 8.99998 14.5C8.99998 15.0523 9.4477 15.5 9.99998 15.5Z" fill="#121620"/>
</g>
<defs>
<clipPath id="clip0_635_150">
<rect width="20" height="20" fill="white"/>
</clipPath>
</defs>
</svg>
